Coordinates
version=1
nRows=24
nColumns=38
inDegrees=no

Units are S.I. units (second, meters, Newtons, ...)
If the header above contains a line with 'inDegrees', this indicates whether rotational values are in degrees (yes) or radians (no).

endheader
time	pelvis_tilt	pelvis_list	pelvis_rotation	pelvis_tx	pelvis_ty	pelvis_tz	hip_flexion_r	hip_adduction_r	hip_rotation_r	knee_angle_r	ankle_angle_r	subtalar_angle_r	mtp_angle_r	hip_flexion_l	hip_adduction_l	hip_rotation_l	knee_angle_l	ankle_angle_l	subtalar_angle_l	mtp_angle_l	lumbar_extension	lumbar_bending	lumbar_rotation	arm_flex_r	arm_add_r	arm_rot_r	elbow_flex_r	pro_sup_r	wrist_flex_r	wrist_dev_r	arm_flex_l	arm_add_l	arm_rot_l	elbow_flex_l	pro_sup_l	wrist_flex_l	wrist_dev_l
5	-0.372907	1.44368	-1.13312	0.785535	1.37917	0.952977	0.0399939	-0.0203856	-0.318779	0.497959	-0.268157	0	0	-0.0228646	-0.108279	-0.0632313	0.3626	-0.257865	0	0	-0.576764	0.200455	0.275487	-0.137267	-0.274621	-0.46061	1.51101	1.5708	0	0	0.569712	0.0281085	0.00603617	0.452829	1.5708	0	0
5.01	-0.371675	1.44427	-1.13366	0.785489	1.379	0.952956	0.0402621	-0.0207272	-0.319463	0.49805	-0.267941	0	0	-0.0227553	-0.10796	-0.0625063	0.361735	-0.258249	0	0	-0.577549	0.199354	0.271551	-0.125137	-0.27993	-0.454085	1.5048	1.5708	0	0	0.576574	0.0294996	-0.00149851	0.453198	1.5708	0	0
5.02	-0.374837	1.44629	-1.13002	0.785372	1.37875	0.952911	0.0420989	-0.0208932	-0.319117	0.497801	-0.267777	0	0	-0.020976	-0.107487	-0.0614884	0.360933	-0.25956	0	0	-0.570706	0.199359	0.246158	-0.0876626	-0.287664	-0.418618	1.47398	1.5708	0	0	0.572324	0.0205487	-0.0351556	0.459057	1.5708	0	0
5.03	-0.373004	1.44639	-1.1317	0.785119	1.37862	0.952949	0.0418372	-0.0205135	-0.318326	0.497427	-0.267484	0	0	-0.0213374	-0.107462	-0.0613313	0.360237	-0.259719	0	0	-0.572136	0.197864	0.240594	-0.0726053	-0.291581	-0.409466	1.46567	1.5708	0	0	0.576163	0.0177902	-0.0393637	0.459661	1.5708	0	0
5.04	-0.371293	1.4467	-1.13315	0.784961	1.37842	0.952963	0.041734	-0.0204834	-0.318289	0.497273	-0.266982	0	0	-0.0215154	-0.107175	-0.0612267	0.359601	-0.259773	0	0	-0.573011	0.196557	0.234787	-0.0574129	-0.295345	-0.399817	1.45693	1.5708	0	0	0.580388	0.0159418	-0.0453721	0.460192	1.5708	0	0
5.05	-0.36458	1.44546	-1.13965	0.784841	1.37827	0.953015	0.0398811	-0.0205053	-0.318737	0.497239	-0.266733	0	0	-0.0238251	-0.107212	-0.0613167	0.358688	-0.259332	0	0	-0.582141	0.193704	0.252373	-0.0697738	-0.29669	-0.422044	1.47532	1.5708	0	0	0.596971	0.0253137	-0.0229536	0.452976	1.5708	0	0
5.06	-0.371318	1.44794	-1.13262	0.784825	1.3779	0.952887	0.0425087	-0.0207056	-0.31894	0.497664	-0.265751	0	0	-0.0218539	-0.10676	-0.0597525	0.357594	-0.259518	0	0	-0.573525	0.195006	0.222658	-0.0258529	-0.302303	-0.378399	1.43873	1.5708	0	0	0.589294	0.0132048	-0.0602481	0.460873	1.5708	0	0
5.07	-0.371648	1.44869	-1.13196	0.784837	1.37758	0.952827	0.042832	-0.0209607	-0.318998	0.497784	-0.265217	0	0	-0.021946	-0.106246	-0.0589203	0.356591	-0.259241	0	0	-0.573461	0.194613	0.216019	-0.00981568	-0.305305	-0.367531	1.42923	1.5708	0	0	0.593478	0.0109167	-0.066654	0.460583	1.5708	0	0
5.08	-0.371994	1.44955	-1.13108	0.784957	1.3772	0.952762	0.0429654	-0.0215068	-0.319785	0.497621	-0.264814	0	0	-0.0224513	-0.105322	-0.0573734	0.35449	-0.258961	0	0	-0.573098	0.194506	0.208833	0.006199	-0.307992	-0.356952	1.41932	1.5708	0	0	0.597471	0.00828229	-0.0722849	0.459996	1.5708	0	0
5.09	-0.374022	1.4504	-1.12889	0.784946	1.37683	0.952722	0.0430991	-0.0214323	-0.319406	0.496946	-0.264433	0	0	-0.0229893	-0.10489	-0.0562891	0.352095	-0.258876	0	0	-0.572856	0.194255	0.202245	0.0220497	-0.310147	-0.346798	1.4092	1.5708	0	0	0.60146	0.00584014	-0.0782242	0.459636	1.5708	0	0
5.1	-0.378596	1.45127	-1.12442	0.784741	1.37646	0.952694	0.0433498	-0.0204486	-0.317747	0.495836	-0.263873	0	0	-0.0230699	-0.105165	-0.0558196	0.350464	-0.258693	0	0	-0.572707	0.193821	0.196599	0.0373636	-0.311611	-0.337371	1.39931	1.5708	0	0	0.605648	0.00389238	-0.0853806	0.459432	1.5708	0	0
5.11	-0.383514	1.45225	-1.11969	0.784401	1.37606	0.952605	0.0441748	-0.0200782	-0.317857	0.496289	-0.263225	0	0	-0.0217949	-0.106097	-0.0570826	0.351774	-0.258272	0	0	-0.572249	0.193046	0.191467	0.0519996	-0.312182	-0.328945	1.38964	1.5708	0	0	0.609624	0.00202235	-0.0932398	0.459457	1.5708	0	0
5.12	-0.387845	1.45333	-1.11535	0.784192	1.37562	0.952501	0.0449072	-0.0200424	-0.318419	0.496519	-0.262653	0	0	-0.0205353	-0.106716	-0.0578908	0.352993	-0.257886	0	0	-0.571639	0.192635	0.185837	0.0667624	-0.312757	-0.320299	1.38003	1.5708	0	0	0.613277	-0.000298947	-0.0996461	0.459516	1.5708	0	0
5.13	-0.390909	1.45434	-1.11221	0.784066	1.37514	0.952405	0.0454026	-0.0202623	-0.319424	0.496698	-0.262149	0	0	-0.0196704	-0.107041	-0.0585209	0.353685	-0.257572	0	0	-0.571133	0.192522	0.179797	0.0815368	-0.313363	-0.311162	1.37045	1.5708	0	0	0.61679	-0.0028037	-0.105471	0.459459	1.5708	0	0
5.14	-0.393391	1.45539	-1.10962	0.78394	1.37462	0.952322	0.0459172	-0.020544	-0.320406	0.497033	-0.261736	0	0	-0.0192822	-0.107074	-0.0586569	0.353359	-0.257482	0	0	-0.570562	0.192442	0.173455	0.0966675	-0.312837	-0.30238	1.3603	1.5708	0	0	0.620617	-0.00481643	-0.112112	0.459496	1.5708	0	0
5.15	-0.395646	1.45649	-1.10728	0.783803	1.37408	0.952238	0.0464898	-0.0208476	-0.321328	0.4974	-0.261281	0	0	-0.0191498	-0.106928	-0.0582475	0.352443	-0.257632	0	0	-0.569937	0.192394	0.166729	0.112046	-0.311134	-0.294047	1.35	1.5708	0	0	0.624349	-0.00663211	-0.119803	0.460121	1.5708	0	0
5.16	-0.397986	1.45753	-1.1047	0.783735	1.3735	0.952159	0.0469324	-0.0212602	-0.322628	0.497678	-0.260768	0	0	-0.0193461	-0.106596	-0.0570265	0.350876	-0.258034	0	0	-0.569565	0.192486	0.159937	0.127042	-0.3096	-0.285727	1.34016	1.5708	0	0	0.626236	-0.00948204	-0.128946	0.461568	1.5708	0	0
5.17	-0.403003	1.45892	-1.09927	0.783749	1.37286	0.952048	0.0477104	-0.0216596	-0.324099	0.497792	-0.260361	0	0	-0.0191653	-0.106134	-0.0552961	0.349094	-0.258777	0	0	-0.568683	0.193123	0.15301	0.141909	-0.308442	-0.27722	1.33022	1.5708	0	0	0.628858	-0.0116335	-0.13838	0.463101	1.5708	0	0
5.18	-0.41067	1.46054	-1.09136	0.783669	1.37225	0.95192	0.0489012	-0.0215811	-0.324664	0.497736	-0.259772	0	0	-0.0181465	-0.10613	-0.0543543	0.348212	-0.259714	0	0	-0.567735	0.193825	0.146082	0.156823	-0.306997	-0.268427	1.32032	1.5708	0	0	0.631066	-0.0144226	-0.147013	0.464896	1.5708	0	0
5.19	-0.418891	1.4623	-1.08289	0.783594	1.37161	0.951769	0.0503801	-0.0215444	-0.325232	0.49808	-0.258883	0	0	-0.016415	-0.106212	-0.0541831	0.348636	-0.260003	0	0	-0.566643	0.194562	0.139064	0.171309	-0.304994	-0.2598	1.31069	1.5708	0	0	0.632677	-0.0180823	-0.154939	0.466656	1.5708	0	0
5.2	-0.426224	1.46405	-1.07539	0.783526	1.37095	0.951619	0.0519045	-0.021674	-0.325784	0.498761	-0.257799	0	0	-0.0149248	-0.106161	-0.0539821	0.348855	-0.259939	0	0	-0.565654	0.19523	0.13235	0.185175	-0.303011	-0.251211	1.30163	1.5708	0	0	0.634071	-0.0217626	-0.162971	0.468707	1.5708	0	0
5.21	-0.432756	1.46588	-1.06879	0.783413	1.37024	0.951472	0.053489	-0.0218734	-0.326056	0.499527	-0.256904	0	0	-0.013608	-0.106046	-0.0539882	0.348826	-0.259678	0	0	-0.564776	0.19578	0.125547	0.198964	-0.299915	-0.243562	1.29275	1.5708	0	0	0.635297	-0.025215	-0.170179	0.471136	1.5708	0	0
5.22	-0.440004	1.46774	-1.06142	0.78325	1.36951	0.951336	0.0551498	-0.0218402	-0.326042	0.500301	-0.256031	0	0	-0.0124717	-0.105973	-0.0536139	0.348209	-0.25945	0	0	-0.564029	0.19646	0.119044	0.211968	-0.296769	-0.236234	1.28474	1.5708	0	0	0.636488	-0.0286422	-0.177456	0.473896	1.5708	0	0
5.23	-0.449206	1.46965	-1.05217	0.783074	1.36877	0.951202	0.0568584	-0.0215082	-0.325117	0.500873	-0.255035	0	0	-0.0115889	-0.105926	-0.0527925	0.346812	-0.259047	0	0	-0.563387	0.19735	0.112901	0.224266	-0.293982	-0.228789	1.27766	1.5708	0	0	0.637355	-0.032467	-0.184184	0.477185	1.5708	0	0
